<svg xmlns="http://www.w3.org/2000/svg" viewBox="0 0 104 49.1"><path d="M52.8 8.8c-0.3 0.3-0.4 0.7-0.4 1.2 0 0.5 0.2 0.9 0.5 1.2 0.3 0.3 0.7 0.5 1.2 0.5s0.9-0.2 1.2-0.5c0.3-0.3 0.5-0.7 0.5-1.2 0-0.5-0.1-0.9-0.4-1.2 -0.3-0.3-0.7-0.5-1.1-0.5S53.1 8.5 52.8 8.8z"/><path d="M103.7 21.6c-0.9 1.2-2 2.6-3.3 4.1 -1.3 1.5-2.7 2.9-4.1 4.3 -1.4 1.3-2.9 2.5-4.3 3.4C90.5 34.1 89.2 34.6 88 34.6c-0.6 0-1.1-0.1-1.5-0.4 -0.4-0.2-0.6-0.7-0.6-1.3 0-0.6 0.2-1.3 0.6-2.1 0.4-0.8 0.9-1.7 1.6-2.9 0.7-1.1 1.6-2.5 2.7-4.1 1.1-1.6 2.2-3.5 3.6-5.6h6.7l0.3-0.6h-6.6l4-5.8h-3l-3.9 5.8h-2.8l-0.3 0.6h2.7c-0.9 1.5-1.8 2.9-2.7 4.2 -0.9 1.3-1.7 2.5-2.4 3.6 -0.4 0.6-0.7 1.1-1 1.7 -0.8 0.8-1.6 1.7-2.5 2.4 -1.4 1.2-2.9 2.3-4.6 3.1C76.5 34 74.8 34.5 73 34.7l-0.1-0.1c0.6-0.1 1.2-0.3 1.8-0.6 0.6-0.3 1.1-0.7 1.6-1.2 0.5-0.5 0.8-1 1.1-1.6s0.4-1.2 0.4-1.8c0-0.9-0.1-1.6-0.4-2.3 -0.2-0.7-0.5-1.4-0.8-2 -0.3-0.7-0.6-1.3-0.9-2 -0.2-0.7-0.4-1.4-0.4-2.1 0-0.8 0.2-1.5 0.7-2.1 0.5-0.6 1.2-0.9 2.2-0.9 0.8 0 1.4 0.2 1.8 0.7 0.4 0.5 0.6 1 0.6 1.7 0 0.4-0.1 0.9-0.2 1.4 -0.1 0.5-0.3 1-0.5 1.3 0.8 0 1.5-0.2 2.2-0.6S83 21.3 83 20.4c0-1-0.4-1.7-1.2-2.3 -0.8-0.6-1.9-0.9-3.2-0.9 -0.7 0-1.4 0.1-2.1 0.3 -0.7 0.2-1.3 0.5-1.8 0.9s-0.9 0.9-1.2 1.5c-0.3 0.6-0.4 1.2-0.4 1.9 -0.2 0.2-0.5 0.4-0.8 0.7 -0.4 0.3-0.8 0.7-1.2 1 -0.4 0.3-0.9 0.6-1.4 0.8 -0.5 0.2-1 0.3-1.5 0.3 -0.6 0-1-0.2-1.4-0.6 -0.4-0.4-0.6-1-0.6-1.8 0-1 0.3-1.9 0.8-2.7 0.5-0.8 1.1-1.5 1.7-2.1 -0.3 0-0.6-0.1-0.9-0.1 -0.3 0-0.6 0-1 0 -0.6 0-1 0.1-1.2 0.3 -0.2 0.2-0.4 0.5-0.5 0.8 -0.9 0.6-1.8 1.3-2.7 2.1 -0.9 0.8-1.8 1.5-2.7 2.3 -0.8 0.8-1.6 1.6-2.3 2.3s-1.3 1.4-1.8 2l-0.1-0.1 6.4-9.2h-3c-1.9 2.9-3.7 5.8-5.5 8.7 -0.1 0.1-0.1 0.2-0.2 0.3 0 0 0 0 0 0 -0.8 1-1.8 1.9-2.7 2.9 -1 1-1.9 1.8-2.9 2.6s-1.9 1.4-2.8 1.9c-0.9 0.5-1.7 0.7-2.3 0.7 -0.7 0-1-0.4-1-1.3 0-0.4 0.2-1 0.5-1.7 0.4-0.7 0.9-1.6 1.7-2.8 0.8-1.2 1.8-2.7 3.1-4.5 1.3-1.8 2.8-4 4.7-6.6h-1.1 -2.1 -9.2c1.1-1.7 2.2-3.6 3.4-5.6 1.2-2 2.4-3.8 3.7-5.5 1.3-1.7 2.5-3.1 3.8-4.2 1.3-1.1 2.5-1.7 3.8-1.7 0.8 0 1.3 0.2 1.6 0.6s0.5 0.9 0.5 1.6c0 0.6 0 1.1-0.1 1.5 -0.1 0.4-0.2 0.9-0.3 1.3 0.8-0.1 1.4-0.4 1.9-0.9 0.5-0.5 0.8-1.2 0.8-2 0-0.9-0.3-1.6-1-2.1C55.8 0.2 55 0 53.9 0c-1.8 0-3.5 0.5-5.1 1.6 -1.6 1.1-3.2 2.4-4.7 4.1 -1.5 1.7-2.9 3.6-4.3 5.7 -1.4 2.1-2.7 4.2-4 6.3H31.9v0.6h3.6c-1.5 2.4-3 4.9-4.5 7.3 -1.5 2.5-2.9 4.8-4.4 7.1 -1.4 2.3-2.9 4.3-4.3 6.3 -1.4 1.9-2.9 3.6-4.4 5.1 -1.5 1.4-3.1 2.6-4.7 3.4C11.4 48.1 9.7 48.5 7.9 48.5c-1.9 0-3.3-0.5-4.2-1.5 -1-1-1.4-2.4-1.4-4.1 0-1.2 0.4-2.2 1.1-2.9 0.7-0.7 1.6-1.1 2.6-1.1v-0.4H5.4c-1.9 0-3.3 0.5-4.1 1.4C0.4 40.7 0 41.8 0 43.1c0 1 0.2 1.9 0.7 2.6 0.4 0.8 1 1.4 1.7 1.9 0.7 0.5 1.5 0.9 2.4 1.1 0.9 0.3 1.9 0.4 2.9 0.4 2.8 0 5.4-0.6 7.8-1.7 2.3-1.2 4.7-3 7-5.5 2.3-2.5 4.8-5.7 7.3-9.6 2.5-3.9 5.4-8.6 8.6-14h9.1c-1.4 2.1-2.6 3.9-3.6 5.4 -1.1 1.6-2 3-2.7 4.1 -0.7 1.1-1.2 2.1-1.5 2.9 -0.3 0.8-0.5 1.5-0.5 2.2 0 0.6 0.2 1.2 0.7 1.7 0.4 0.5 1.1 0.8 2 0.8 0.8 0 1.7-0.2 2.6-0.7 1-0.5 1.9-1.1 2.9-1.8 1-0.8 2-1.6 3-2.6 0.4-0.4 0.8-0.8 1.2-1.2 -1.2 2-2.5 3.9-3.7 5.9h3.3c0.5-1.3 1.2-2.5 1.9-3.7s1.4-2.2 2.1-2.9c1.8-2.1 3.6-3.9 5.2-5.4 1.6-1.5 3.1-2.7 4.5-3.7l0.1 0.1c-0.4 0.6-0.5 1.4-0.5 2.2 0 1.2 0.3 2.1 1 2.7 0.7 0.7 1.5 1 2.6 1 0.6 0 1.2-0.1 1.8-0.3 0.6-0.2 1.1-0.5 1.6-0.8 0.5-0.3 1-0.7 1.4-1.1 0.2-0.2 0.4-0.4 0.6-0.6 0 0.5 0.1 0.9 0.3 1.4 0.2 0.7 0.5 1.3 0.8 2 0.3 0.7 0.5 1.3 0.7 2 0.2 0.7 0.3 1.3 0.3 2 0 0.6-0.1 1.2-0.2 1.8 -0.2 0.6-0.4 1.1-0.8 1.6 -0.3 0.5-0.8 0.8-1.3 1.1 -0.5 0.3-1.1 0.4-1.8 0.4 -1.1 0-2.1-0.3-3-0.9 -0.9-0.6-1.3-1.5-1.3-2.6 0-0.4 0.1-0.8 0.2-1.2 0.1-0.4 0.4-0.7 0.8-0.9 0.1 0.3 0.2 0.6 0.4 0.8s0.5 0.3 0.9 0.3c0.5 0 0.8-0.2 1.1-0.5 0.2-0.3 0.4-0.7 0.4-1.2 0-0.5-0.2-0.9-0.5-1.1 -0.3-0.2-0.7-0.4-1.2-0.4 -1 0-1.7 0.4-2.3 1.1 -0.6 0.7-0.8 1.5-0.8 2.4 0 0.8 0.2 1.6 0.5 2.2 0.3 0.6 0.7 1.1 1.3 1.5 0.5 0.4 1.1 0.7 1.8 0.9 0.7 0.2 1.5 0.3 2.3 0.3 2.1 0 4.1-0.4 5.9-1.2 1.9-0.8 3.6-1.8 5.1-3.1 0.8-0.6 1.5-1.3 2.2-2 0 0 0 0.1 0 0.1 -0.4 1-0.6 1.8-0.6 2.6 0 1.1 0.4 2 1.1 2.7s1.6 1 2.7 1c1.3 0 2.7-0.4 4.1-1.3 1.5-0.9 2.9-2 4.3-3.3 1.4-1.3 2.8-2.8 4.2-4.3 1.4-1.6 2.6-3.1 3.7-4.5L103.7 21.6z"/></svg>