<svg id="mailSvg">
	<path class="st0" d="M249,125c0,68.5-55.5,124-124,124S1,193.5,1,125c0-34.2,13.9-65.2,36.3-87.7S90.8,1,125,1C193.5,1,249,56.5,249,125z"/>
	<path class="st1" d="M137.2,126.5c-4.4,2.3-8.9,3.2-14.2,3.2c-13.1,0-24.2-9.6-24.2-25C98.7,88.2,110.2,74,128,74c13.9,0,23.3,9.8,23.3,23.1c0,12-6.7,19-14.2,19c-3.2,0-6.2-2.2-5.9-7l0,0c-2.8,4.7-6.8,7-11.6,7c-4.6,0-8.6-3.8-8.6-10.1c0-9.9,7.8-19,19-19c3.4,0,6.5,0.7,8.6,1.7l-7.3,20.3"/>
	<polygon class="st0" points="38.9,68.7 128.6,68.7 211.1,68.7 211.1,181.3 132.2,181.3 38.9,181.3 38.9,131.8 "/>
	<polyline class="st0" points="38.9,68.7 83.4,114.1 125,156.5 211.1,68.7 "/>
</svg>